<?xml version="1.0" encoding="iso-8859-1"?>
<!-- Generator: Adobe Illustrator 18.0.0, SVG Export Plug-In . SVG Version: 6.00 Build 0)  -->
<!DOCTYPE svg PUBLIC "-//W3C//DTD SVG 1.1//EN" "http://www.w3.org/Graphics/SVG/1.1/DTD/svg11.dtd">
<svg xmlns="http://www.w3.org/2000/svg" xmlns:xlink="http://www.w3.org/1999/xlink" version="1.1" id="Capa_1" x="0px" y="0px" viewBox="0 0 314.758 314.758" style="enable-background:new 0 0 314.758 314.758;" xml:space="preserve" width="512px" height="512px">
<g>
	<path d="M52.866,89.504l-0.461,91.832c-0.034,6.903,5.534,12.527,12.438,12.563c0.021,0,0.042,0,0.063,0   c6.874,0,12.464-5.556,12.499-12.438c0,0,0.404-79.056,0.404-88.57c0.013-0.029,0.028-0.058,0.041-0.087   c0.015-3.065-0.387-5.487,2.266-7.073c1.589-7.57,0.964-16.373-2.876-25.19C63.473,63.006,52.939,75.051,52.866,89.504z" fill="#007bff"/>
	<path d="M149.036,103.831c-6.176-8.67-8.704-19.854-7.494-31.26c0.443-4.176,1.388-8.379,2.838-12.5h-11.455   c-8.451,19.921-2.749,6.48-16.845,39.707c-2.622-6.18-12.982-30.6-16.845-39.707H87.728c1.45,4.121,2.395,8.324,2.838,12.5   c1.226,11.558-1.384,22.891-7.741,31.608l0.006,195.579c0,8.284,6.716,15,15,15c8.284,0,15-6.716,15-15V183.1   c0-1.788,1.45-3.238,3.238-3.238c1.788,0,3.238,1.45,3.238,3.238v116.659c0,8.284,6.716,15,15,15c8.284,0,15-6.716,15-15   L149.036,103.831z M115.054,116.379c2.761,0,5,2.239,5,5s-2.239,5-5,5c-2.761,0-5-2.239-5-5S112.293,116.379,115.054,116.379z    M115.054,153.379c-2.761,0-5-2.239-5-5s2.239-5,5-5c2.761,0,5,2.239,5,5S117.816,153.379,115.054,153.379z" fill="#007bff"/>
	<circle cx="116.067" cy="25.907" r="25.907" fill="#007bff"/>
	<path d="M124.132,57.624l-8.065,4.006l-8.039-4.006c-0.887-0.443-1.934,0.204-1.934,1.195c0,4.13,0,5.599,0,8.648   c0,0.989,1.046,1.64,1.934,1.195l8.052-4.026l8.052,4.026c0.885,0.442,1.934-0.202,1.934-1.195c0-3.046,0-4.523,0-8.648   C126.066,57.826,125.017,57.181,124.132,57.624z" fill="#007bff"/>
	<path d="M168.517,58.245h84.683c1.115,0,2.179-0.47,2.931-1.294c0.752-0.824,1.126-1.927,1.023-3.038   C255.115,31.848,237.656,14.255,215.653,12c0.12-0.429,0.205-0.873,0.205-1.341c0-2.761-2.239-5-5-5c-2.761,0-5,2.239-5,5   c0,0.468,0.085,0.912,0.205,1.341c-22.003,2.255-39.462,19.849-41.501,41.913c-0.103,1.112,0.268,2.215,1.021,3.04   C166.335,57.777,167.4,58.245,168.517,58.245z" fill="#007bff"/>
	<path d="M257.353,69.1h-86.436c-4.24-4.378-9.812-7.452-16.048-8.564c-3.839,8.813-4.466,17.611-2.881,25.179   c2.538,1.493,2.082,3.163,2.726,8.067c0.019,0.039,0.036,0.08,0.056,0.119c1.655,12.983,4.517,34.71,4.517,34.71   c0.62,4.723,3.87,8.683,8.381,10.212c4.494,1.522,9.487,0.373,12.863-3.012l39.177-39.277c4.797-4.809,4.853-12.542,0.197-17.435   h37.448c2.762,0,5-2.238,5-5C262.353,71.338,260.114,69.1,257.353,69.1z M180.768,100.174l-1.518-11.562   c-0.116-3.34-0.797-6.539-1.94-9.513h24.477L180.768,100.174z" fill="#007bff"/>
</g>
</svg>
