<?xml version="1.0" encoding="iso-8859-1"?>
<!-- Generator: Adobe Illustrator 19.0.0, SVG Export Plug-In . SVG Version: 6.00 Build 0)  -->
<svg xmlns="http://www.w3.org/2000/svg" xmlns:xlink="http://www.w3.org/1999/xlink" version="1.1" id="Layer_1" x="0px" y="0px" viewBox="0 0 214.305 214.305" style="enable-background:new 0 0 214.305 214.305;" xml:space="preserve" width="512px" height="512px">
<g>
	<g>
		<g>
			<path d="M22.169,181.049h169.966c2.042,0,3.695-1.655,3.695-3.695c0-43.902-32.078-80.436-74.021-87.445     c2.349-2.868,3.818-6.482,3.818-10.47c0-9.169-7.459-16.627-16.627-16.627c-9.168,0-16.627,7.458-16.627,16.627     c0,3.764,1.305,7.2,3.421,9.99c-43.548,5.597-77.319,42.88-77.319,87.926C18.475,179.395,20.127,181.049,22.169,181.049z      M109,70.201c5.095,0,9.237,4.144,9.237,9.237s-4.142,9.237-9.237,9.237c-5.095,0-9.237-4.144-9.237-9.237     C99.763,74.346,103.905,70.201,109,70.201z M107.153,96.066c43.585,0,79.264,34.481,81.205,77.593H25.948     C27.889,130.547,63.568,96.066,107.153,96.066z" fill="#61b750"/>
			<path d="M81.609,107.988c-17.601,6.484-31.966,19.296-40.449,36.074c-0.92,1.822-0.191,4.043,1.631,4.965     c0.534,0.269,1.104,0.397,1.663,0.397c1.349,0,2.652-0.742,3.302-2.028c7.635-15.106,20.564-26.638,36.408-32.473     c1.916-0.705,2.894-2.829,2.19-4.745C85.647,108.26,83.522,107.286,81.609,107.988z" fill="#61b750"/>
			<polygon points="203.22,188.439 195.831,188.439 18.475,188.439 11.085,188.439 0,188.439 0,195.828 11.085,195.828      11.085,210.608 18.475,210.608 18.475,195.828 195.831,195.828 195.831,210.608 203.22,210.608 203.22,195.828 214.305,195.828      214.305,188.439    " fill="#61b750"/>
			<path d="M97.295,44.09c-0.83,3.181-3.684,4.57-3.767,4.61c-1.862,0.832-2.702,3.015-1.869,4.878     c0.61,1.377,1.963,2.194,3.378,2.194c0.501,0,1.01-0.105,1.501-0.321c0.617-0.276,6.098-2.881,7.866-9.329     c1.49-5.443-0.209-11.66-5.052-18.48c-2.865-4.036-3.861-7.491-2.959-10.266c1.422-4.395,7.202-6.428,7.357-6.482     c1.931-0.64,2.98-2.724,2.346-4.658c-0.639-1.936-2.724-2.982-4.662-2.358c-0.386,0.126-9.421,3.175-12.052,11.159     c-1.692,5.133-0.364,10.812,3.944,16.881C96.742,36.732,98.117,40.942,97.295,44.09z" fill="#61b750"/>
			<path d="M120.817,38.899c-0.466,1.835-2.143,2.675-2.162,2.685c-1.862,0.83-2.702,3.015-1.869,4.878     c0.61,1.377,1.963,2.194,3.378,2.194c0.501-0.002,1.01-0.105,1.501-0.321c0.491-0.22,4.86-2.295,6.26-7.415     c1.165-4.249-0.115-9.039-3.807-14.235c-1.288-1.815-2.681-4.42-2.006-6.519c0.725-2.246,3.623-3.681,4.684-4.047     c1.931-0.642,2.977-2.722,2.342-4.657c-0.639-1.936-2.724-2.982-4.662-2.358c-0.747,0.245-7.347,2.569-9.374,8.725     c-1.332,4.041-0.325,8.458,2.991,13.132C120.377,34.18,121.319,36.926,120.817,38.899z" fill="#61b750"/>
		</g>
	</g>
</g>
<g>
</g>
<g>
</g>
<g>
</g>
<g>
</g>
<g>
</g>
<g>
</g>
<g>
</g>
<g>
</g>
<g>
</g>
<g>
</g>
<g>
</g>
<g>
</g>
<g>
</g>
<g>
</g>
<g>
</g>
</svg>
